<?xml version="1.0" encoding="UTF-8"?>
<svg id="Capa_1" data-name="Capa 1" xmlns="http://www.w3.org/2000/svg" viewBox="0 200 1654.25 388.46">
  <defs>
    <style>
      .cls-1 {
        fill: #fff;
      }
    </style>
  </defs>
  <g id="tqLfoJ.tif">
    <g>
      <path class="cls-1" d="m892.85,287.36c-10.13,8.7-20.51,14.01-32.61,15.46-9.47,1.13-20.66-2.24-28.7-17.11-4.43,3.16-8.5,6.87-13.22,9.25-7.96,4.02-16.08,8.18-24.62,10.46-9.06,2.43-16.62-1.48-20.6-9.63-9.3,4.37-18.04,9.37-27.39,12.64-11.17,3.91-22.84,5.29-34.08-.6-9.92-5.19-15.7-12.96-15.28-24.57.08-2.19.01-4.39.01-7.03-13.23.77-25.93,1.5-37.87,2.19-1.4,6.96-1.81,13.9-4.28,20.02-3.41,8.45-15.76,14-24.82,12.56-9.58-1.52-16.92-8.74-18.42-18.95-1.04-7.06,2.11-20.95,11.24-25.67,1.02-.53,1.91-1.46,2.63-2.39,4.26-5.5,7.63-6.55,13.89-3.74,6.13,2.75,11.89,7.42,18.24,8.34,10.26,1.49,20.86.59,31.31.7,7.57.08,13.31-2.9,18.93-8.28,7.65-7.33,18.84-7.57,26.07-1.55,2.37,1.97,4.92,6.37,4.24,8.76-1.25,4.34-5.5,6.59-10.66,5.31-.17-.84-.42-1.42-.38-1.97.18-2.42.45-4.84.69-7.26-2.9.41-6.09.17-8.64,1.33-9.82,4.45-15.62,17.22-12.86,27.35,1.58,5.77,10.22,11.09,17.6,10.37,18.52-1.8,34.72-9.77,48.12-21.92,6.38-5.78,11.43-12.53,20.04-15.48,11.52-3.95,22.87-4.03,34.34-.17,3.4,1.14,6.52,2.63,9.36-1.72,1.04-1.6,5-2.72,6.89-2.03,3.35,1.21,5.23,4.16,3.43,8.31-1.35,3.1-2.71,6.39-3.05,9.7-1.61,15.42,5.2,16.94,16.24,13.8,10.75-3.06,20.59-9.62,30.43-15.33,2.04-1.18,3.24-5.36,3.27-8.17.33-29.83.18-59.66.55-89.49.12-9.62,1.25-19.24,2.16-28.83.32-3.4.07-7.99,5.53-7.44,4.94.5,6.23,4.19,5.36,8.44-4.79,23.51-3.46,47.34-3.77,71.06-.23,17.35.05,34.71.17,52.06.02,2.49.37,4.98.7,9.17,4.82-6.54,8.24-11.92,12.42-16.63,3.85-4.32,8.21-8.32,12.89-11.72,10.45-7.6,19.06-.97,24.59,7.7,5.71,8.96,4.16,18.44.03,28.73,2.59-.32,4.68-.07,6.22-.86,11.23-5.77,23.18-10.6,33.32-17.92,15.85-11.44,32.17-14.77,50.56-8.45,3.51,1.21,6.34,1.36,8.8-2.47.93-1.45,5-2.6,6.22-1.79,2,1.35,3.79,4.36,3.91,6.76.13,2.82-1.41,5.82-2.6,8.58-2.29,5.28-2.63,11.24,1.64,14.53,3.24,2.49,9.34,3.35,13.46,2.27,16.09-4.22,30.56-11.42,39.87-26.25,2.45-3.91,5.29-7.62,8.3-11.13,1.51-1.76,5-4.38,5.53-3.97,2.61,2.03,6.03,4.74,6.41,7.58,1.35,9.95,1.57,20.04,2.24,30.08.09,1.36.33,2.71.59,4.84,5.3-1.82,10.14-3.57,15.02-5.14,5.15-1.66,10.27-3.91,15.57-4.51,4.48-.51,6.74-2.55,7.53-6.27,1.95-9.14,9.96-13.43,15.79-19.11,3.93-3.82,10.53-1.43,14.58,1.82,14.03,11.23,29.96,8.03,45.71,7.1,5.03-.3,10.1-.05,15.26,1.01-13.86,10.13-30.35,6.55-45.62,8.46-1.61,21.72-7.39,29.76-23.11,32.51-10.47,1.83-18.66-4.06-25.65-19.22-10.52,4.76-21.14,9.4-31.54,14.49-1.37.67-2.2,3.68-2.24,5.62-.22,10.08.3,20.2-.19,30.26-1.15,23.69-2.63,47.4-11.51,69.81-4.53,11.45-10.58,21.96-23.03,26.45-14.21,5.12-27.03.45-38.81-7.28-13.29-8.72-20.82-21.6-21.58-37.26-.58-11.91,4.99-22.54,11.73-32.28,17.26-24.93,40.97-42.5,66.69-57.65,4.01-2.36,5.82-4.52,5.51-9.29-.49-7.52-.13-15.09-.13-22.63l-2.15-.68c-4.57,4.39-9.5,8.46-13.64,13.22-9.97,11.46-22.89,17.36-37.51,18.44-8.73.65-16.97-3.04-22.16-11.11-1.29-2-2.62-3.97-3.41-5.16-10.63,5.88-20.43,12.99-31.36,16.95-15.67,5.68-23.69,1.54-29.68-12.9-23.82,15.1-49.43,18.59-76.96,11.11-.87,3.7-1.84,7.14-2.48,10.65-.85,4.66-3.96,6.23-6.68,2.47-3.11-4.3-4.69-9.83-6.34-15.02-1.18-3.7-1.38-7.71-2.2-12.71Zm235.45,27.57c-.73-.19-1.46-.37-2.19-.56-24.98,15.43-48.07,33.07-64.16,58.21-7.35,11.48-11.32,24.14-5.72,37.77,4.6,11.19,13,18.29,24.95,20.54,12.14,2.29,22.03-1.94,28.93-12.06,9.14-13.4,13.1-28.8,15.19-44.58,1.61-12.14,2.25-24.42,2.93-36.67.41-7.54.08-15.11.08-22.67Zm-302.34-40.91c-11.96-5.04-35.42.51-42.36,9.39-1.64,2.11-2.6,4.91-3.3,7.55-.99,3.72.91,6.27,4.68,5.65,5.04-.83,10.21-1.99,14.83-4.09,9.63-4.36,18.56-9.93,26.15-18.5Zm216.78-.67c-3.65-.61-5.8-1.47-7.79-1.2-7.88,1.05-15.86,1.89-23.52,3.89-6.57,1.72-11.66,6.22-14.5,12.62-2.12,4.78-.05,8.07,5.18,7.88,3.3-.12,6.76-.83,9.81-2.08,11.15-4.59,21.43-10.55,30.82-21.12Zm-422.16,16.55c.58,9.88,5.2,15.31,12.23,13.87,7.01-1.44,12.97-9.81,13.78-18.68.69-7.54-4.14-8.85-9.95-10.58-9.14-2.73-10.19-2.74-13.7,6.23-1.14,2.92-1.59,6.11-2.36,9.17Zm590.42-4.05c-1.49-5.65-2.19-10.01-8.72-10.18-2.1-.06-4.44-.9-6.2-2.08-3.58-2.41-6.25-.73-7.38,2.14-2.14,5.42-4.56,11.2-4.58,16.83-.01,3.6,3.31,8.84,6.53,10.34,2.86,1.32,8.81-.33,11.33-2.79,3.92-3.81,6.1-9.41,9.01-14.26Zm-297.66,8.73l.94,1.91c2.54,0,5.09,0,7.63,0,14.91.04,26.71-14.49,23.5-29.13-.81-3.68-2.99-6.25-6.87-3.52-11.29,7.93-18.41,19.23-25.2,30.74Z"/>
      <path class="cls-1" d="m565.48,169.95c-5.58,33.34-11.12,66.4-16.66,99.55,7.69-3.28,14.54-7.23,21.91-9.03,6.68-1.63,14.06-1.87,20.89-.96,7.73,1.03,10.19,9.35,5.64,17.3-7.77,13.58-19.71,22.28-34.45,26.8-6.2,1.9-12.97,1.97-19.82,2.92-.59,2.29-1.92,5.16-1.97,8.06-.13,6.83-4.05,6.69-10.51,5.38,4.35-26.65,8.68-53.2,13.17-80.75-1.78,1.32-3.07,2.01-4.01,3.02-28.45,30.56-64.17,48.71-103.97,59.07-13.87,3.61-28.47,4.97-42.84,5.99-14.6,1.04-28.5-3.87-42.39-7.89-4.2-1.22-8.52-2.02-12.79-2.96-6.04-1.34-12.03-3.1-18.15-3.83-8.57-1.02-17.22-1.55-25.86-1.74-10.65-.23-20.63,2.71-29.98,7.78-.71.38-1.43,1.15-2.11,1.12-2.61-.12-5.21-.5-7.81-.79,1.44-1.81,2.51-4.41,4.39-5.29,19.13-9,39.1-10.24,60.02-7.87,19.12,2.16,36.67,9.31,54.97,14,14.19,3.64,28.59,2.42,42.69-.06,24-4.22,46.93-11.98,68.33-23.77,23.13-12.75,44.32-27.72,59.3-50.23,4.65-6.98,4.99-14.69,6.44-22.25,1.81-9.44,2.98-19.01,4.3-28.54.87-6.25,4.93-6.39,11.26-5.02Zm13.47,92.56c-13.6-.1-29.33,12.58-33.1,27.15-.71,2.75-.85,7.41.71,8.59,2.86,2.15,7.73,4.07,10.8,3.09,12.79-4.06,23.25-11.85,30.34-23.46,5.13-8.41,1.07-15.31-8.76-15.38Z"/>
      <path class="cls-1" d="m1137.29,227.79c-1.01,3.99-1.17,6.54-2.3,8.55-1.16,2.07-3.49,5.28-4.9,5.08-3.52-.5-6.91-2.69-6.36-7.27.45-3.74,1.03-7.5,2.13-11.08.29-.94,3.31-2.15,4-1.68,2.84,1.93,5.27,4.47,7.43,6.4Z"/>
    </g>
  </g>
</svg>